<svg id="Group_64753" data-name="Group 64753" xmlns="http://www.w3.org/2000/svg" width="111.8" height="37.636" viewBox="0 0 111.8 37.636">
  <rect id="Rectangle_17384" data-name="Rectangle 17384" width="111.8" height="37.636" transform="translate(0 0)"/>
  <g id="Group_64750" data-name="Group 64750" transform="translate(13.178 7.395)">
    <path id="Path_77401" data-name="Path 77401" d="M26.2,18.106a4.484,4.484,0,0,1,2.136-3.763,4.593,4.593,0,0,0-3.617-1.956c-1.522-.16-3,.911-3.773.911-.791,0-1.984-.9-3.271-.869A4.816,4.816,0,0,0,13.624,14.9c-1.753,3.035-.446,7.494,1.234,9.948.84,1.2,1.822,2.543,3.107,2.5,1.257-.051,1.727-.8,3.244-.8s1.944.8,3.254.77c1.349-.021,2.2-1.207,3.009-2.419a9.917,9.917,0,0,0,1.376-2.8A4.338,4.338,0,0,1,26.2,18.106Z" transform="translate(-12.792 -7.611)" fill="#fff"/>
    <path id="Path_77402" data-name="Path 77402" d="M26.063,9.38a4.414,4.414,0,0,0,1.01-3.163,4.5,4.5,0,0,0-2.907,1.5,4.2,4.2,0,0,0-1.037,3.046A3.714,3.714,0,0,0,26.063,9.38Z" transform="translate(-15.126 -6.217)" fill="#fff"/>
    <g id="Group_64748" data-name="Group 64748" transform="translate(22.928 9.113)">
      <path id="Path_77404" data-name="Path 77404" d="M51.121,28.491H49.364L48.4,25.467H45.057l-.917,3.024H42.43L45.745,18.2h2.047ZM48.112,24.2l-.87-2.688q-.138-.412-.519-1.939h-.031q-.153.657-.489,1.939L45.347,24.2Z" transform="translate(-42.43 -18.044)" fill="#fff"/>
      <path id="Path_77405" data-name="Path 77405" d="M62.571,25.484a4.2,4.2,0,0,1-1.029,2.993,3.017,3.017,0,0,1-2.288.978,2.291,2.291,0,0,1-2.12-1.053V32.3H55.485V24.3q0-1.189-.061-2.44h1.45l.092,1.177H57a2.934,2.934,0,0,1,4.7-.292A4.1,4.1,0,0,1,62.571,25.484Zm-1.68.06a3.06,3.06,0,0,0-.489-1.788,1.69,1.69,0,0,0-1.436-.733,1.715,1.715,0,0,0-1.107.4,1.877,1.877,0,0,0-.649,1.062,2.154,2.154,0,0,0-.077.5v1.239a1.986,1.986,0,0,0,.5,1.368,1.649,1.649,0,0,0,1.29.558,1.69,1.69,0,0,0,1.45-.718A3.16,3.16,0,0,0,60.891,25.544Z" transform="translate(-45.372 -18.839)" fill="#fff"/>
      <path id="Path_77406" data-name="Path 77406" d="M73.608,25.484a4.2,4.2,0,0,1-1.029,2.993,3.018,3.018,0,0,1-2.289.978A2.291,2.291,0,0,1,68.17,28.4V32.3H66.521V24.3q0-1.189-.061-2.44h1.45L68,23.04h.031a2.935,2.935,0,0,1,4.7-.292A4.109,4.109,0,0,1,73.608,25.484Zm-1.681.06a3.06,3.06,0,0,0-.49-1.788A1.687,1.687,0,0,0,70,23.024a1.722,1.722,0,0,0-1.109.4,1.875,1.875,0,0,0-.648,1.062,2.2,2.2,0,0,0-.077.5v1.239a1.993,1.993,0,0,0,.5,1.368,1.652,1.652,0,0,0,1.292.558,1.688,1.688,0,0,0,1.45-.718A3.16,3.16,0,0,0,71.927,25.544Z" transform="translate(-47.871 -18.839)" fill="#fff"/>
      <path id="Path_77407" data-name="Path 77407" d="M86.171,25.558a2.75,2.75,0,0,1-.915,2.139,4.056,4.056,0,0,1-2.8.9,4.895,4.895,0,0,1-2.666-.641l.381-1.375a4.588,4.588,0,0,0,2.383.642A2.248,2.248,0,0,0,84,26.8a1.372,1.372,0,0,0,.521-1.122,1.438,1.438,0,0,0-.429-1.054,3.973,3.973,0,0,0-1.42-.794q-2.7-1.008-2.7-2.949a2.6,2.6,0,0,1,.955-2.077A3.775,3.775,0,0,1,83.45,18a5,5,0,0,1,2.337.489l-.414,1.344a4.086,4.086,0,0,0-1.978-.473,2.012,2.012,0,0,0-1.365.428,1.224,1.224,0,0,0-.414.933,1.261,1.261,0,0,0,.474,1.008,5.342,5.342,0,0,0,1.5.794,5.072,5.072,0,0,1,1.955,1.252A2.609,2.609,0,0,1,86.171,25.558Z" transform="translate(-50.888 -17.999)" fill="#fff"/>
      <path id="Path_77408" data-name="Path 77408" d="M93.784,22.6H91.966v3.6q0,1.375.962,1.374a2.9,2.9,0,0,0,.733-.077l.046,1.252a3.737,3.737,0,0,1-1.283.183,1.977,1.977,0,0,1-1.528-.6,2.925,2.925,0,0,1-.55-2V22.6H89.263V21.363h1.083V20l1.62-.489v1.848h1.818V22.6Z" transform="translate(-53.034 -18.342)" fill="#fff"/>
      <path id="Path_77409" data-name="Path 77409" d="M103.561,25.514a4.072,4.072,0,0,1-.978,2.81,3.485,3.485,0,0,1-2.718,1.13,3.323,3.323,0,0,1-2.6-1.083,3.949,3.949,0,0,1-.97-2.734,4.039,4.039,0,0,1,1-2.825,3.467,3.467,0,0,1,2.7-1.1,3.392,3.392,0,0,1,2.626,1.085A3.9,3.9,0,0,1,103.561,25.514Zm-1.71.038a3.324,3.324,0,0,0-.442-1.751,1.633,1.633,0,0,0-1.482-.884,1.656,1.656,0,0,0-1.512.884,3.379,3.379,0,0,0-.442,1.782,3.314,3.314,0,0,0,.442,1.752,1.691,1.691,0,0,0,2.981-.015A3.337,3.337,0,0,0,101.851,25.552Z" transform="translate(-54.625 -18.84)" fill="#fff"/>
      <path id="Path_77410" data-name="Path 77410" d="M111.459,23.314a2.87,2.87,0,0,0-.52-.046,1.556,1.556,0,0,0-1.344.658,2.477,2.477,0,0,0-.412,1.466v3.895h-1.649V24.2q0-1.282-.048-2.337h1.437l.06,1.42h.046a2.546,2.546,0,0,1,.825-1.177,1.994,1.994,0,0,1,1.192-.4,2.648,2.648,0,0,1,.412.03l0,1.573Z" transform="translate(-57.16 -18.839)" fill="#fff"/>
      <path id="Path_77411" data-name="Path 77411" d="M120.226,25.22a3.867,3.867,0,0,1-.06.748h-4.948a2.153,2.153,0,0,0,.718,1.682,2.455,2.455,0,0,0,1.618.518,5.472,5.472,0,0,0,2-.35l.258,1.144a6.189,6.189,0,0,1-2.489.459,3.608,3.608,0,0,1-2.712-1.015,3.753,3.753,0,0,1-.985-2.726,4.252,4.252,0,0,1,.917-2.794,3.161,3.161,0,0,1,2.6-1.191,2.766,2.766,0,0,1,2.43,1.191A4.006,4.006,0,0,1,120.226,25.22Zm-1.573-.428a2.233,2.233,0,0,0-.32-1.268,1.44,1.44,0,0,0-1.314-.688,1.564,1.564,0,0,0-1.313.672,2.463,2.463,0,0,0-.488,1.283l3.435,0Z" transform="translate(-58.551 -18.836)" fill="#fff"/>
    </g>
    <g id="Group_64749" data-name="Group 64749" transform="translate(23.541 0.259)">
      <path id="Path_77412" data-name="Path 77412" d="M47.5,11.952h-.864l-.473-1.486H44.516l-.451,1.486h-.841l1.629-5.06h1.006Zm-1.479-2.11L45.59,8.521c-.045-.135-.128-.45-.255-.953h-.015c-.053.217-.128.533-.241.953l-.42,1.321Z" transform="translate(-43.224 -6.63)" fill="#fff"/>
      <path id="Path_77413" data-name="Path 77413" d="M52.987,8.717l-1.382,3.648h-.788L49.48,8.717h.871l.624,1.929c.105.323.195.63.262.923h.022c.06-.262.15-.57.262-.923l.616-1.929Z" transform="translate(-44.64 -7.043)" fill="#fff"/>
      <path id="Path_77414" data-name="Path 77414" d="M57.151,12.343l-.06-.42h-.022a1.244,1.244,0,0,1-1.066.5,1.062,1.062,0,0,1-1.119-1.074c0-.9.781-1.366,2.132-1.366V9.919c0-.48-.255-.721-.758-.721a1.7,1.7,0,0,0-.953.271l-.165-.533a2.336,2.336,0,0,1,1.254-.316c.953,0,1.434.5,1.434,1.509v1.344a5.419,5.419,0,0,0,.053.871Zm-.113-1.817c-.9,0-1.351.218-1.351.736a.517.517,0,0,0,.555.57.776.776,0,0,0,.8-.743v-.563Z" transform="translate(-45.864 -7.021)" fill="#fff"/>
      <path id="Path_77415" data-name="Path 77415" d="M60.883,7.657a.485.485,0,1,1,.511-.488A.476.476,0,0,1,60.883,7.657Zm.421,4.249h-.811V8.258H61.3Z" transform="translate(-47.114 -6.584)" fill="#fff"/>
      <path id="Path_77416" data-name="Path 77416" d="M64.241,11.875H63.43V6.553h.811Z" transform="translate(-47.799 -6.553)" fill="#fff"/>
      <path id="Path_77417" data-name="Path 77417" d="M68.268,12.343l-.06-.42h-.022a1.244,1.244,0,0,1-1.066.5A1.062,1.062,0,0,1,66,11.352c0-.9.781-1.366,2.132-1.366V9.919c0-.48-.255-.721-.758-.721a1.7,1.7,0,0,0-.953.271l-.166-.534a2.336,2.336,0,0,1,1.254-.316c.953,0,1.434.5,1.434,1.509v1.344a5.622,5.622,0,0,0,.052.871Zm-.113-1.817c-.9,0-1.351.218-1.351.736a.517.517,0,0,0,.555.57.776.776,0,0,0,.8-.743Z" transform="translate(-48.381 -7.021)" fill="#fff"/>
      <path id="Path_77418" data-name="Path 77418" d="M73.5,11.958a1.238,1.238,0,0,1-1.147-.646h-.016l-.046.563H71.6c.022-.292.03-.624.03-.983V6.553h.811V8.761h.015a1.252,1.252,0,0,1,1.163-.608c.879,0,1.495.751,1.495,1.847A1.756,1.756,0,0,1,73.5,11.958Zm-.165-3.169a.933.933,0,0,0-.893.969V10.4a.894.894,0,0,0,.88.916c.607,0,.969-.5.969-1.283C74.285,9.293,73.909,8.789,73.331,8.789Z" transform="translate(-49.648 -6.553)" fill="#fff"/>
      <path id="Path_77419" data-name="Path 77419" d="M78.5,11.875h-.81V6.553h.81Z" transform="translate(-51.027 -6.553)" fill="#fff"/>
      <path id="Path_77420" data-name="Path 77420" d="M83.5,10.712H81.066a1.047,1.047,0,0,0,1.149,1.081,2.737,2.737,0,0,0,.983-.173l.126.563a3.042,3.042,0,0,1-1.223.225,1.694,1.694,0,0,1-1.817-1.839A1.782,1.782,0,0,1,82.01,8.61a1.533,1.533,0,0,1,1.517,1.734A1.526,1.526,0,0,1,83.5,10.712Zm-.743-.578c0-.563-.285-.961-.8-.961a.963.963,0,0,0-.887.961Z" transform="translate(-51.615 -7.019)" fill="#fff"/>
      <path id="Path_77421" data-name="Path 77421" d="M90.279,12.426a1.736,1.736,0,0,1-1.757-1.877A1.777,1.777,0,0,1,90.34,8.62,1.723,1.723,0,0,1,92.1,10.49,1.788,1.788,0,0,1,90.279,12.426Zm.031-3.213c-.586,0-.961.548-.961,1.314s.383,1.3.953,1.3.952-.586.952-1.314S90.88,9.213,90.31,9.213Z" transform="translate(-53.48 -7.021)" fill="#fff"/>
      <path id="Path_77422" data-name="Path 77422" d="M97.841,12.343h-.81V10.248c0-.645-.248-.969-.736-.969a.843.843,0,0,0-.811.893v2.17h-.81V9.738c0-.323-.008-.668-.03-1.044h.713l.038.563h.022a1.309,1.309,0,0,1,1.156-.638c.765,0,1.268.586,1.268,1.539v2.185Z" transform="translate(-54.866 -7.021)" fill="#fff"/>
      <path id="Path_77423" data-name="Path 77423" d="M104.984,9.059h-.892v1.772q0,.676.472.676a1.6,1.6,0,0,0,.361-.038l.022.616a1.806,1.806,0,0,1-.63.091c-.639,0-1.02-.353-1.02-1.276V9.059h-.532V8.451h.532V7.783l.8-.241V8.45h.892Z" transform="translate(-56.705 -6.777)" fill="#fff"/>
      <path id="Path_77424" data-name="Path 77424" d="M110.257,11.875h-.812V9.8c0-.653-.248-.983-.736-.983a.794.794,0,0,0-.81.863v2.2h-.811V6.553h.811V8.745h.015a1.228,1.228,0,0,1,1.1-.593c.773,0,1.245.6,1.245,1.554Z" transform="translate(-57.684 -6.553)" fill="#fff"/>
      <path id="Path_77425" data-name="Path 77425" d="M115.6,10.712h-2.433a1.046,1.046,0,0,0,1.148,1.081,2.734,2.734,0,0,0,.983-.173l.127.563a3.045,3.045,0,0,1-1.224.225,1.694,1.694,0,0,1-1.817-1.839,1.782,1.782,0,0,1,1.726-1.959,1.533,1.533,0,0,1,1.517,1.734A1.567,1.567,0,0,1,115.6,10.712Zm-.743-.578c0-.563-.285-.961-.8-.961a.962.962,0,0,0-.887.961Z" transform="translate(-58.883 -7.019)" fill="#fff"/>
    </g>
  </g>
</svg>
