<svg xmlns="http://www.w3.org/2000/svg" width="25.684" height="24.541" viewBox="0 0 25.684 24.541">
  <g id="bonds" transform="translate(-287.699 -1050.571)">
    <path id="Line_35" data-name="Line 35" d="M4.421.75H0A.75.75,0,0,1-.75,0,.75.75,0,0,1,0-.75H4.421a.75.75,0,0,1,.75.75A.75.75,0,0,1,4.421.75Z" transform="translate(298.676 1051.322)" fill="#150000"/>
    <g id="Group_64777" data-name="Group 64777" transform="translate(288.449 1051.322)">
      <path id="Path_2082" data-name="Path 2082" d="M1084.458,246.231h-1.5v-6.91a1.583,1.583,0,1,0-3.148,0v3.694h-1.5v-3.694a3.079,3.079,0,1,1,6.148,0Z" transform="translate(-1066.508 -236.823)" fill="#150000"/>
      <path id="Path_2078" data-name="Path 2078" d="M1064.1,272.641h-11.035a2.236,2.236,0,0,1-2.205-2.26V255.237h1.5v15.144a.735.735,0,0,0,.705.76H1064.1Z" transform="translate(-1048.354 -249.001)" fill="#150000"/>
      <path id="Line_34" data-name="Line 34" d="M.75,7.529H-.75V0H.75Z" transform="translate(17.2 2.293)" fill="#150000"/>
      <path id="Path_2079" data-name="Path 2079" d="M1080.554,279.58a7.735,7.735,0,1,1,7.735-7.735A7.744,7.744,0,0,1,1080.554,279.58Zm0-13.97a6.235,6.235,0,1,0,6.235,6.235A6.242,6.242,0,0,0,1080.554,265.61Z" transform="translate(-1063.355 -255.79)" fill="#be1600"/>
      <path id="Path_2080" data-name="Path 2080" d="M1042.169,243.657a.907.907,0,0,1-.643-.266.944.944,0,0,1-.276-.666v-3.4a3.254,3.254,0,0,1,.915-2.462,3.051,3.051,0,0,1,2.138-.787h10.248v1.5h-10.3a1.583,1.583,0,0,0-1.05.373,1.838,1.838,0,0,0-.45,1.376v2.83l11.051-.077v-1.623a.75.75,0,1,1,1.5,0v2.354a.765.765,0,0,1-.759.764l-12.366.086Z" transform="translate(-1042 -236.824)" fill="#150000"/>
      <g id="Group_64753" data-name="Group 64753" transform="translate(14.865 11.968)">
        <path id="Line_36" data-name="Line 36" d="M4.59.6H0A.6.6,0,0,1-.6,0,.6.6,0,0,1,0-.6H4.59a.6.6,0,0,1,.6.6A.6.6,0,0,1,4.59.6Z" transform="translate(0 1)" fill="#be1600"/>
        <path id="Line_37" data-name="Line 37" d="M4.669.657H4.662L-.007.6A.6.6,0,0,1-.6-.007.6.6,0,0,1,.007-.6l4.669.057a.6.6,0,0,1-.007,1.2Z" transform="translate(0 2.907)" fill="#be1600"/>
        <path id="Path_2083" data-name="Path 2083" d="M1091.005,284.467a.6.6,0,0,1-.439-.191l-.2-.218-3.038-3.256a.61.61,0,0,1,.445-1.026h1.7a1.233,1.233,0,0,0,1.191-1.174,1.335,1.335,0,0,0-.349-.991,1.061,1.061,0,0,0-.774-.345.6.6,0,0,1,0-1.2,2.25,2.25,0,0,1,1.646.72,2.541,2.541,0,0,1,.676,1.883,2.418,2.418,0,0,1-2.389,2.307h-.337l2.316,2.483a.6.6,0,0,1-.439,1.009Z" transform="translate(-1087.554 -275.665)" fill="#be1600"/>
      </g>
    </g>
  </g>
</svg>
