<svg xmlns="http://www.w3.org/2000/svg" width="26.752" height="25.153" viewBox="0 0 26.752 25.153">
  <g id="equity" transform="translate(-2280.366 -947.127)">
    <g id="Group_64748" data-name="Group 64748" transform="translate(2282.422 948.183)">
      <g id="Group_64740" data-name="Group 64740" transform="translate(0 0)">
        <path id="Path_77409" data-name="Path 77409" d="M3.11,4.19l-.067,0a.75.75,0,0,1-.681-.813L2.579.928-.051.748a.75.75,0,0,1-.7-.8.75.75,0,0,1,.8-.7l3.393.233A.75.75,0,0,1,4.14.3L3.856,3.506A.75.75,0,0,1,3.11,4.19Z" transform="matrix(0.766, 0.643, -0.643, 0.766, 21.04, 0)"/>
        <path id="Path_77410" data-name="Path 77410" d="M0,4.19a.75.75,0,0,1-.747-.7.75.75,0,0,1,.7-.8l2.63-.18L2.362.066a.75.75,0,0,1,.681-.813.75.75,0,0,1,.813.681L4.14,3.141a.75.75,0,0,1-.7.814L.051,4.188Z" transform="translate(3.81 20.859) rotate(140)"/>
        <g id="Group_64739" data-name="Group 64739" transform="translate(0.248 2.408)">
          <path id="Ellipse_93" data-name="Ellipse 93" d="M9.112-.75A9.862,9.862,0,1,1-.75,9.112,9.873,9.873,0,0,1,9.112-.75Zm0,18.224A8.362,8.362,0,1,0,.75,9.112,8.372,8.372,0,0,0,9.112,17.474Z" transform="translate(2.061)"/>
          <path id="Path_77407" data-name="Path 77407" d="M984.948,600.75H972.729v-1.5h12.218Z" transform="translate(-961.557 -600)"/>
          <path id="Path_77408" data-name="Path 77408" d="M933.33,684.781H921.211v-1.5H933.33Z" transform="translate(-922.157 -665.807)"/>
        </g>
      </g>
    </g>
    <g id="Group_64803" data-name="Group 64803" transform="translate(2291.108 956.305)">
      <path id="Path_77743" data-name="Path 77743" d="M5.535.5H0A.5.5,0,0,1-.5,0,.5.5,0,0,1,0-.5H5.535a.5.5,0,0,1,.5.5A.5.5,0,0,1,5.535.5Z" transform="translate(0 0)" fill="#be1600"/>
      <path id="Line_55" data-name="Line 55" d="M5.556.568H5.55L-.006.5A.5.5,0,0,1-.5-.006.5.5,0,0,1,.006-.5l5.556.068a.5.5,0,0,1-.006,1Z" transform="translate(0 2.269)" fill="#be1600"/>
      <path id="Path_77388" data-name="Path 77388" d="M1091.621,285.735a.5.5,0,0,1-.366-.159l-.242-.26-3.623-3.884a.512.512,0,0,1,.381-.852h2.018a1.664,1.664,0,0,0,1.63-1.6,1.8,1.8,0,0,0-.474-1.338,1.476,1.476,0,0,0-1.077-.477.5.5,0,0,1,0-1,2.466,2.466,0,0,1,1.8.79,2.807,2.807,0,0,1,.746,2.081,2.664,2.664,0,0,1-2.629,2.543h-.894l3.091,3.314a.5.5,0,0,1-.366.841Z" transform="translate(-1087.515 -276.665)" fill="#be1600"/>
    </g>
  </g>
</svg>
