<svg xmlns="http://www.w3.org/2000/svg" width="30.726" height="28.558" viewBox="0 0 30.726 28.558">
  <g id="Group_68189" data-name="Group 68189" transform="translate(-237.75 -310.192)">
    <path id="Path_77450" data-name="Path 77450" d="M46.375,14.313a.747.747,0,0,1-.475-.17A9.28,9.28,0,0,0,37.142,12.1a11.312,11.312,0,0,0-3.961,2.031A.75.75,0,0,1,32.194,13a12.629,12.629,0,0,1,4.483-2.329,10.792,10.792,0,0,1,10.173,2.313.75.75,0,0,1-.476,1.33Z" transform="translate(211.312 300.375)" fill="#be1600"/>
    <path id="Path_77455" data-name="Path 77455" d="M46.375,14.313a.747.747,0,0,1-.475-.17A9.28,9.28,0,0,0,37.142,12.1a11.312,11.312,0,0,0-3.961,2.031A.75.75,0,0,1,32.194,13a12.629,12.629,0,0,1,4.483-2.329,10.792,10.792,0,0,1,10.173,2.313.75.75,0,0,1-.476,1.33Z" transform="translate(291.906 348.567) rotate(180)" fill="#be1600"/>
    <path id="Path_77451" data-name="Path 77451" d="M47,15.117h-.025l-3.86-.125a.75.75,0,1,1,.048-1.5l3.11.1.1-3.051a.75.75,0,0,1,1.5.048l-.123,3.8A.75.75,0,0,1,47,15.117Z" transform="translate(211.312 300.375)" fill="#be1600"/>
    <path id="Path_77454" data-name="Path 77454" d="M47,15.117h-.025l-3.86-.125a.75.75,0,1,1,.048-1.5l3.11.1.1-3.051a.75.75,0,0,1,1.5.048l-.123,3.8A.75.75,0,0,1,47,15.117Z" transform="translate(291.906 348.567) rotate(180)" fill="#be1600"/>
    <path id="Ellipse_94" data-name="Ellipse 94" d="M5.5-.75A6.25,6.25,0,1,1-.75,5.5,6.257,6.257,0,0,1,5.5-.75Zm0,11A4.75,4.75,0,1,0,.75,5.5,4.755,4.755,0,0,0,5.5,10.25Z" transform="translate(238.5 319.5)"/>
    <path id="Path_77452" data-name="Path 77452" d="M48,15.813a.75.75,0,0,1,.75.75v4.691l4.66.027a.75.75,0,0,1,.746.75,6.2,6.2,0,0,1-1.856,4.43A6.27,6.27,0,0,1,47.859,28.3a6.108,6.108,0,0,1-4.388-1.831,6.245,6.245,0,0,1-1.791-4.411,6.144,6.144,0,0,1,1.886-4.422A6.321,6.321,0,0,1,48,15.813Zm4.6,6.963L48,22.75A.75.75,0,0,1,47.25,22V17.372a4.854,4.854,0,0,0-2.636,1.335,4.656,4.656,0,0,0-1.434,3.349,4.754,4.754,0,0,0,1.36,3.359A4.619,4.619,0,0,0,47.859,26.8a4.779,4.779,0,0,0,3.384-1.4A4.729,4.729,0,0,0,52.6,22.776Z" transform="translate(211.57 302.953)"/>
    <path id="Path_77453" data-name="Path 77453" d="M56.5,19.781h0L51,19.75A.75.75,0,0,1,50.25,19V13.563a.75.75,0,0,1,.75-.75,6.241,6.241,0,0,1,6.25,6.218.75.75,0,0,1-.75.75Zm-4.75-1.527,3.939.022a4.746,4.746,0,0,0-3.939-3.9Z" transform="translate(211.226 303.219)"/>
    <g id="Group_70139" data-name="Group 70139" transform="translate(242.3 322.771)">
      <path id="Line_54" data-name="Line 54" d="M3.127.355h-3.2A.427.427,0,0,1-.5-.073.427.427,0,0,1-.073-.5h3.2a.427.427,0,0,1,.427.427A.427.427,0,0,1,3.127.355Z" transform="translate(0 0)"/>
      <path id="Line_55" data-name="Line 55" d="M3.182.394H3.177L-.078.355A.427.427,0,0,1-.5-.078.427.427,0,0,1-.068-.5l3.255.04a.427.427,0,0,1,.422.432A.427.427,0,0,1,3.182.394Z" transform="translate(0 1.329)"/>
      <path id="Path_77388" data-name="Path 77388" d="M1089.95,282.04a.426.426,0,0,1-.313-.136l-.142-.152-2.117-2.27a.434.434,0,0,1,.317-.73h1.182a.851.851,0,0,0,.821-.81.922.922,0,0,0-.241-.684.731.731,0,0,0-.533-.238.427.427,0,0,1,0-.855,1.578,1.578,0,0,1,1.154.505,1.779,1.779,0,0,1,.474,1.319,1.7,1.7,0,0,1-1.674,1.617h-.214l1.6,1.716a.427.427,0,0,1-.313.718Z" transform="translate(-1087.617 -276.665)"/>
    </g>
  </g>
</svg>
