<svg xmlns="http://www.w3.org/2000/svg" width="20.721" height="26.589" viewBox="0 0 20.721 26.589">
  <g id="fixed-deposit" transform="translate(-908.967 -953.314)">
    <path id="Path_77361" data-name="Path 77361" d="M6.486-.656h.077A7.42,7.42,0,0,1,13.9,6.613a7,7,0,0,1-2.034,5.036,7.123,7.123,0,0,1-5.183,2.113A7.42,7.42,0,0,1-.654,6.494,7,7,0,0,1,1.38,1.458,7.124,7.124,0,0,1,6.486-.656Zm.274,12.919A5.635,5.635,0,0,0,10.8,10.594a5.513,5.513,0,0,0,1.6-3.965A5.912,5.912,0,0,0,6.547.845a5.637,5.637,0,0,0-4.1,1.669,5.513,5.513,0,0,0-1.6,3.965A5.912,5.912,0,0,0,6.7,12.263Z" transform="matrix(0.851, -0.526, 0.526, 0.851, 909.869, 961.18)" fill="#be1600"/>
    <path id="Path_2101" data-name="Path 2101" d="M768.4,264.632v3.292a1.3,1.3,0,0,1-1.253,1.341h-15.5a1.3,1.3,0,0,1-1.253-1.341v-9.583A1.3,1.3,0,0,1,751.642,257h15.5a1.3,1.3,0,0,1,1.253,1.341v1.771" transform="translate(159.611 709.889)" fill="#f7f1ea"/>
    <path id="Path_2103" data-name="Path 2103" d="M805.269,275.188h-3.6a3.129,3.129,0,0,1,0-6.2h3.543a1.122,1.122,0,0,1,1.084,1.155v3.959A1.055,1.055,0,0,1,805.269,275.188Zm-3.6-4.7c-.644,0-1.188.732-1.188,1.6s.544,1.6,1.188,1.6h3.127v-3.2Z" transform="translate(123.396 700.473)" fill="#707070"/>
    <path id="Path_2104" data-name="Path 2104" d="M805.269,275.188h-3.6a3.129,3.129,0,0,1,0-6.2h3.543a1.122,1.122,0,0,1,1.084,1.155v3.959A1.055,1.055,0,0,1,805.269,275.188Zm-3.6-4.7c-.644,0-1.188.732-1.188,1.6s.544,1.6,1.188,1.6h3.127v-3.2Z" transform="translate(123.396 700.473)"/>
    <g id="Group_64779" data-name="Group 64779" transform="translate(189.339 -6.945)">
      <path id="Line_1229" data-name="Line 1229" d="M4.8.5H0A.5.5,0,0,1-.5,0,.5.5,0,0,1,0-.5H4.8a.5.5,0,0,1,.5.5A.5.5,0,0,1,4.8.5Z" transform="translate(727.301 967.846)" fill="#be1600"/>
      <path id="Line_1230" data-name="Line 1230" d="M4.883.559H4.877L-.006.5A.5.5,0,0,1-.5-.006.5.5,0,0,1,.006-.5l4.883.059a.5.5,0,0,1-.006,1Z" transform="translate(727.301 969.84)" fill="#be1600"/>
      <path id="Path_77440" data-name="Path 77440" d="M1088.909,282.807a.5.5,0,0,1-.419-.226c-.425-.649-1.065-1.625-1.135-1.729a.511.511,0,0,1,.415-.807h1.773a1.4,1.4,0,0,0,1.373-1.348,1.525,1.525,0,0,0-.4-1.131,1.237,1.237,0,0,0-.9-.4.5.5,0,0,1,0-1,2.227,2.227,0,0,1,1.628.713,2.529,2.529,0,0,1,.672,1.874,2.4,2.4,0,0,1-2.371,2.293h-.865l.648.988a.5.5,0,0,1-.418.774Z" transform="translate(-360.243 691.181)" fill="#be1600"/>
    </g>
    <path id="Path_2102" data-name="Path 2102" d="M767.173,270.015H751.65a1.9,1.9,0,0,1-1.35-.537,2.2,2.2,0,0,1-.661-1.539v-9.613a2.2,2.2,0,0,1,.66-1.539,1.9,1.9,0,0,1,1.35-.537h15.523a1.9,1.9,0,0,1,1.316.538,2.2,2.2,0,0,1,.66,1.539v1.786h-1.5V258.35a.688.688,0,0,0-.2-.479.405.405,0,0,0-.287-.121H751.615a.407.407,0,0,0-.279.121.688.688,0,0,0-.2.479v9.565a.688.688,0,0,0,.2.479.4.4,0,0,0,.287.121h15.54a.4.4,0,0,0,.287-.121.688.688,0,0,0,.2-.479v-3.283h1.5v3.306a2.2,2.2,0,0,1-.66,1.539A1.9,1.9,0,0,1,767.173,270.015Z" transform="translate(159.611 709.889)" fill="#150000"/>
  </g>
</svg>
