<svg xmlns="http://www.w3.org/2000/svg" width="22.01" height="23.774" viewBox="0 0 22.01 23.774">
  <g id="future-and-option" transform="translate(-2029.552 -1058.697)">
    <g id="Group_64744" data-name="Group 64744" transform="translate(2030.302 1059.447)">
      <path id="Rectangle_286" data-name="Rectangle 286" d="M1-.75H2.993A1.752,1.752,0,0,1,4.743,1v9.443a1.752,1.752,0,0,1-1.75,1.75H1a1.752,1.752,0,0,1-1.75-1.75V1A1.752,1.752,0,0,1,1-.75ZM2.993,10.693a.25.25,0,0,0,.25-.25V1a.25.25,0,0,0-.25-.25H1A.25.25,0,0,0,.75,1v9.443a.25.25,0,0,0,.25.25Z" transform="translate(15.548 10.831)" fill="#150000"/>
      <path id="Rectangle_284" data-name="Rectangle 284" d="M1-.75H2.993A1.752,1.752,0,0,1,4.743,1V8.536a1.752,1.752,0,0,1-1.75,1.75H1A1.752,1.752,0,0,1-.75,8.536V1A1.752,1.752,0,0,1,1-.75ZM2.993,8.786a.25.25,0,0,0,.25-.25V1a.25.25,0,0,0-.25-.25H1A.25.25,0,0,0,.75,1V8.536a.25.25,0,0,0,.25.25Z" transform="translate(0.66 12.588)" fill="#150000"/>
      <path id="Rectangle_285" data-name="Rectangle 285" d="M1-.75H2.993A1.752,1.752,0,0,1,4.743,1V13.3a1.752,1.752,0,0,1-1.75,1.75H1A1.752,1.752,0,0,1-.75,13.3V1A1.752,1.752,0,0,1,1-.75Zm1.993,14.3a.25.25,0,0,0,.25-.25V1a.25.25,0,0,0-.25-.25H1A.25.25,0,0,0,.75,1V13.3a.25.25,0,0,0,.25.25Z" transform="translate(8.38 7.969)" fill="#150000"/>
      <path id="Path_2077" data-name="Path 2077" d="M331,41.638a.75.75,0,0,1-.48-1.327l8.274-6.878a2.375,2.375,0,0,1,1.758-.524,2.324,2.324,0,0,1,1.578.855l2.326,2.948a.815.815,0,0,0,.555.293.867.867,0,0,0,.642-.183l3.9-3.206q.024-.024.051-.046l1.148-.94.952,1.16,0,0-5.093,4.188a2.375,2.375,0,0,1-1.755.516,2.322,2.322,0,0,1-1.572-.855l-2.326-2.947a.817.817,0,0,0-.558-.293.866.866,0,0,0-.642.186l-8.274,6.878A.747.747,0,0,1,331,41.638Z" transform="translate(-331 -32.716)" fill="#be1600"/>
      <path id="Path_77383" data-name="Path 77383" d="M863.6-2325.48l-.067,0a.75.75,0,0,1-.681-.813l.211-2.385-2.565-.176a.75.75,0,0,1-.7-.8.75.75,0,0,1,.8-.7l3.329.228a.751.751,0,0,1,.519.261.75.75,0,0,1,.177.553l-.278,3.147A.75.75,0,0,1,863.6-2325.48Z" transform="translate(-843.37 2329.605)" fill="#be1600"/>
    </g>
  </g>
</svg>
