<svg id="Group_64759" data-name="Group 64759" xmlns="http://www.w3.org/2000/svg" xmlns:xlink="http://www.w3.org/1999/xlink" width="127.297" height="37.636" viewBox="0 0 127.297 37.636">
  <defs>
    <linearGradient id="linear-gradient" x1="2.472" y1="1.035" x2="2.361" y2="1.005" gradientUnits="objectBoundingBox">
      <stop offset="0" stop-color="#00a0ff"/>
      <stop offset="0.007" stop-color="#00a1ff"/>
      <stop offset="0.26" stop-color="#00beff"/>
      <stop offset="0.512" stop-color="#00d2ff"/>
      <stop offset="0.76" stop-color="#00dfff"/>
      <stop offset="1" stop-color="#00e3ff"/>
    </linearGradient>
    <linearGradient id="linear-gradient-2" x1="1.95" y1="1.879" x2="1.69" y2="1.879" gradientUnits="objectBoundingBox">
      <stop offset="0" stop-color="#ffe000"/>
      <stop offset="0.409" stop-color="#ffbd00"/>
      <stop offset="0.775" stop-color="orange"/>
      <stop offset="1" stop-color="#ff9c00"/>
    </linearGradient>
    <linearGradient id="linear-gradient-3" x1="1.926" y1="0.946" x2="1.835" y2="0.793" gradientUnits="objectBoundingBox">
      <stop offset="0" stop-color="#ff3a44"/>
      <stop offset="1" stop-color="#c31162"/>
    </linearGradient>
    <linearGradient id="linear-gradient-4" x1="1.856" y1="2.093" x2="1.897" y2="2.025" gradientUnits="objectBoundingBox">
      <stop offset="0" stop-color="#32a071"/>
      <stop offset="0.068" stop-color="#2da771"/>
      <stop offset="0.476" stop-color="#15cf74"/>
      <stop offset="0.801" stop-color="#06e775"/>
      <stop offset="1" stop-color="#00f076"/>
    </linearGradient>
  </defs>
  <rect id="Rectangle_17383" data-name="Rectangle 17383" width="127.297" height="37.636" transform="translate(0 0)"/>
  <g id="Group_64754" data-name="Group 64754" transform="translate(14.689 7.174)">
    <path id="Path_77389" data-name="Path 77389" d="M1680.025,276.816a2.6,2.6,0,0,1-1.938-.8,2.731,2.731,0,0,1-.783-1.957,2.67,2.67,0,0,1,.783-1.955,2.588,2.588,0,0,1,1.936-.8,2.623,2.623,0,0,1,1.938.8,2.833,2.833,0,0,1,0,3.91A2.575,2.575,0,0,1,1680.025,276.816Zm-22.976,0a2.692,2.692,0,0,1-1.947-.791,2.757,2.757,0,0,1,1.947-4.723,2.713,2.713,0,0,1,1.087.225,2.2,2.2,0,0,1,.827.591l.051.062-.576.566-.06-.07a1.639,1.639,0,0,0-1.338-.576,1.85,1.85,0,0,0-1.334.545,2.068,2.068,0,0,0,0,2.834,1.95,1.95,0,0,0,2.7,0,1.473,1.473,0,0,0,.391-.887h-1.849v-.8h2.642l.011.072a2.879,2.879,0,0,1,.038.4,2.4,2.4,0,0,1-.66,1.766A2.573,2.573,0,0,1,1657.049,276.816Zm30.549-.113h-.815l-2.5-3.993.021.719V276.7h-.815v-5.286h.93l.026.04,2.346,3.761-.021-.717v-3.085h.823Zm-13.7,0h-.826V272.21h-1.432v-.8h3.686v.8H1673.9V276.7Zm-2.929,0h-.823v-5.288h.823Zm-4.627,0h-.823V272.21h-1.432v-.8h3.687v.8h-1.432Zm-2.776-.009h-3.157v-5.28h3.157v.8h-2.331v1.451h2.1v.787h-2.1V275.9h2.331Zm15.121-1.227a1.822,1.822,0,0,0,1.334.553,1.775,1.775,0,0,0,1.334-.553,2.1,2.1,0,0,0,0-2.816,1.826,1.826,0,0,0-1.334-.553,1.767,1.767,0,0,0-1.332.553,2.1,2.1,0,0,0,0,2.816Z" transform="translate(-1627.62 -271.3)" fill="#fff"/>
    <path id="Path_77390" data-name="Path 77390" d="M1669.789,687.029a3.629,3.629,0,1,0,3.64,3.629A3.572,3.572,0,0,0,1669.789,687.029Zm0,5.82a2.205,2.205,0,1,1,2.046-2.2A2.1,2.1,0,0,1,1669.789,692.849Zm-7.941-5.82a3.629,3.629,0,1,0,3.64,3.629A3.572,3.572,0,0,0,1661.848,687.029Zm0,5.82a2.205,2.205,0,1,1,2.047-2.2A2.1,2.1,0,0,1,1661.848,692.849Zm-9.449-4.712v1.536h3.687a3.236,3.236,0,0,1-.834,1.934,3.761,3.761,0,0,1-2.844,1.127,4.1,4.1,0,0,1,0-8.19,3.935,3.935,0,0,1,2.776,1.1l1.089-1.089a5.356,5.356,0,0,0-3.857-1.555,5.632,5.632,0,1,0,0,11.262,5.154,5.154,0,0,0,3.933-1.583,5.1,5.1,0,0,0,1.336-3.6,4.754,4.754,0,0,0-.085-.957h-5.2S1652.4,688.137,1652.4,688.137Zm38.65,1.2a3.372,3.372,0,0,0-3.108-2.312,3.448,3.448,0,0,0-3.421,3.629,3.547,3.547,0,0,0,3.6,3.629,3.6,3.6,0,0,0,3.023-1.61l-1.232-.825a2.064,2.064,0,0,1-1.783,1,1.854,1.854,0,0,1-1.764-1.1l4.852-2.01S1691.049,689.333,1691.049,689.333Zm-4.948,1.213a1.992,1.992,0,0,1,1.9-2.114,1.4,1.4,0,0,1,1.346.768Zm-3.942,3.516h1.593V683.4h-1.593Zm-2.617-6.227h-.057a2.513,2.513,0,0,0-1.915-.815,3.629,3.629,0,0,0,0,7.252,2.506,2.506,0,0,0,1.915-.825h.057v.521c0,1.385-.74,2.132-1.933,2.132a2.012,2.012,0,0,1-1.83-1.289l-1.385.579a3.464,3.464,0,0,0,3.212,2.142c1.868,0,3.45-1.1,3.45-3.782v-6.512h-1.506v.6Zm-1.829,5.014a2.207,2.207,0,0,1,0-4.4,2.04,2.04,0,0,1,1.934,2.208A2.015,2.015,0,0,1,1677.714,692.849Zm20.8-9.449h-3.81v10.662h1.593v-4.038h2.219a3.317,3.317,0,1,0,0-6.624Zm.047,5.135h-2.266v-3.659h2.266a1.83,1.83,0,1,1,0,3.659Zm9.839-1.525a3,3,0,0,0-2.844,1.63l1.413.587a1.515,1.515,0,0,1,1.451-.787,1.539,1.539,0,0,1,1.678,1.374v.113a3.568,3.568,0,0,0-1.659-.408c-1.525,0-3.072.834-3.072,2.4a2.464,2.464,0,0,0,2.644,2.351,2.243,2.243,0,0,0,2.027-1.042h.057v.825h1.536v-4.084A2.922,2.922,0,0,0,1708.4,687.01Zm-.2,5.839c-.521,0-1.251-.255-1.251-.911,0-.825.911-1.138,1.687-1.138a2.764,2.764,0,0,1,1.451.36A1.918,1.918,0,0,1,1708.2,692.849Zm9.034-5.612-1.829,4.625h-.057l-1.9-4.625h-1.715l2.844,6.465-1.621,3.593h1.659l4.376-10.058Zm-14.342,6.824h1.593V683.4h-1.593Z" transform="translate(-1620.182 -674.243)" fill="#fff" fill-rule="evenodd"/>
    <path id="Path_77391" data-name="Path 77391" d="M400.489,299.457a1.728,1.728,0,0,0-.389,1.2v18.863a1.645,1.645,0,0,0,.4,1.193l.066.057,10.568-10.568v-.236L400.555,299.4Z" transform="translate(-400.1 -298.803)" fill-rule="evenodd" fill="url(#linear-gradient)"/>
    <path id="Path_77392" data-name="Path 77392" d="M921.825,637.8l-3.525-3.525v-.247l3.525-3.525.077.047,4.169,2.37a1.3,1.3,0,0,1,0,2.463l-4.169,2.37Z" transform="translate(-907.276 -622.859)" fill-rule="evenodd" fill="url(#linear-gradient-2)"/>
    <path id="Path_77393" data-name="Path 77393" d="M432.636,805.6l-3.6-3.6L418.4,812.634a1.4,1.4,0,0,0,1.772.057l12.464-7.09" transform="translate(-418.011 -790.71)" fill-rule="evenodd" fill="url(#linear-gradient-3)"/>
    <path id="Path_77394" data-name="Path 77394" d="M432.636,293.846l-12.464-7.08a1.382,1.382,0,0,0-1.772.057l10.634,10.624Z" transform="translate(-418.011 -286.157)" fill-rule="evenodd" fill="url(#linear-gradient-4)"/>
  </g>
</svg>
