<svg id="Group_58072" data-name="Group 58072" xmlns="http://www.w3.org/2000/svg" width="18.84" height="18.84" viewBox="0 0 18.84 18.84">
  <path id="Subtraction_17" data-name="Subtraction 17" d="M4.873,9.746A4.873,4.873,0,1,1,9.745,4.874,4.879,4.879,0,0,1,4.873,9.746Zm0-7.851a2.979,2.979,0,1,0,2.976,2.98A2.982,2.982,0,0,0,4.873,1.9Z" transform="translate(4.719 4.717)" fill="#fff" stroke="rgba(0,0,0,0)" stroke-miterlimit="10" stroke-width="1"/>
  <path id="Exclusion_50" data-name="Exclusion 50" d="M13.228,18.84H5.612A5.619,5.619,0,0,1,0,13.228V5.612A5.619,5.619,0,0,1,5.612,0h7.615A5.619,5.619,0,0,1,18.84,5.612v7.615A5.619,5.619,0,0,1,13.228,18.84ZM5.612,1.9A3.721,3.721,0,0,0,1.9,5.612v7.615a3.721,3.721,0,0,0,3.717,3.717h7.615a3.721,3.721,0,0,0,3.717-3.717V5.612A3.721,3.721,0,0,0,13.228,1.9ZM14.3,5.751A1.168,1.168,0,1,1,15.47,4.584,1.169,1.169,0,0,1,14.3,5.751Z" transform="translate(0 0)" fill="#fff"/>
</svg>
