<svg xmlns="http://www.w3.org/2000/svg" width="23.57" height="25.804" viewBox="0 0 23.57 25.804">
  <g id="Group_64801" data-name="Group 64801" transform="translate(-1122.843 -832.865)">
    <path id="Path_77393" data-name="Path 77393" d="M1023.3,396.921a8.995,8.995,0,0,1-6.674-2.628,9.339,9.339,0,0,1-2.45-7.173,13,13,0,0,1,3.482-7.372,22.125,22.125,0,0,1,3.137-3.022l.031-.022.295-.2.841,1.242-.277.187c-.3.235-5.671,4.451-6.013,9.292a7.839,7.839,0,0,0,2.032,6.025,7.668,7.668,0,0,0,5.985,2.163l.053,1.5Q1023.525,396.921,1023.3,396.921Z" transform="translate(108.688 460.609)"/>
    <path id="Path_77394" data-name="Path 77394" d="M1038.143,396.864h-.136v-1.5h.118a8.7,8.7,0,0,0,6.419-2.551,7.47,7.47,0,0,0,1.792-5.631c-.35-4.958-5.97-9.26-6.026-9.3l-.022-.017-.3-.248.948-1.162.293.239a22.257,22.257,0,0,1,3.125,3.013,13,13,0,0,1,3.482,7.372,8.953,8.953,0,0,1-2.178,6.746,10.153,10.153,0,0,1-7.5,3.041Z" transform="translate(94.094 460.668)"/>
    <path id="Path_77395" data-name="Path 77395" d="M1034.745,377.875h-9.12a.75.75,0,0,1,0-1.5h9.12a.75.75,0,0,1,0,1.5Z" transform="translate(101.915 460.609)"/>
    <path id="Path_77397" data-name="Path 77397" d="M1039.495,367.327" transform="translate(92.902 470.472)" fill="none" stroke="#000" stroke-width="1.5"/>
    <path id="Path_77396" data-name="Path 77396" d="M1030.183,370.353c-.043-.063-.056-.082-1.213-2.5-.194-.36-.714-1.492-.075-2.229.659-.76,1.9-.337,2.377-.159l.166.031.2.035a5.931,5.931,0,0,0,1.813.042l.058-.008a6.258,6.258,0,0,0,.947-.216c.962-.291,1.653-.188,2.053.305.6.739.089,1.847-.1,2.2-1.155,2.415-1.168,2.435-1.208,2.494l-1.245-.836a.683.683,0,0,0-.039.066c.059-.115.735-1.526,1.148-2.388l.019-.036a2.275,2.275,0,0,0,.18-.456,2.6,2.6,0,0,0-.372.087,7.729,7.729,0,0,1-1.17.266l-.042.006-.027,0a7.432,7.432,0,0,1-2.272-.051l-.2-.035c-.161-.028-.261-.049-.266-.05l-.056-.012-.053-.02a3.435,3.435,0,0,0-.686-.194,2.288,2.288,0,0,0,.18.456l.019.036c.411.86,1.087,2.269,1.147,2.387a.705.705,0,0,0-.043-.07Z" transform="translate(99.57 467.68)"/>
    <path id="Path_77449" data-name="Path 77449" d="M6.855,0A6.855,6.855,0,1,1,0,6.855,6.855,6.855,0,0,1,6.855,0Z" transform="translate(1132.703 844.959)" fill="#fefbf5"/>
    <path id="Path_77449_-_Outline" data-name="Path 77449 - Outline" d="M6.855,1.5A5.355,5.355,0,1,0,12.21,6.855,5.361,5.361,0,0,0,6.855,1.5m0-1.5A6.855,6.855,0,1,1,0,6.855,6.855,6.855,0,0,1,6.855,0Z" transform="translate(1132.703 844.959)" fill="#be1600"/>
    <g id="Group_64733" data-name="Group 64733" transform="translate(1137.48 849.323)">
      <path id="Path_77743" data-name="Path 77743" d="M4.14.5H0A.5.5,0,0,1-.5,0,.5.5,0,0,1,0-.5H4.14a.5.5,0,0,1,.5.5A.5.5,0,0,1,4.14.5Z" transform="translate(0 0)" fill="#be1600"/>
      <path id="Line_55" data-name="Line 55" d="M4.155.551H4.149L-.006.5A.5.5,0,0,1-.5-.006.5.5,0,0,1,.006-.5l4.155.051a.5.5,0,0,1-.006,1Z" transform="translate(0 1.697)" fill="#be1600"/>
      <path id="Path_77388" data-name="Path 77388" d="M1090.648,283.575a.5.5,0,0,1-.366-.159l-.181-.194-2.708-2.9a.509.509,0,0,1,.376-.851h1.509a1.132,1.132,0,0,0,1.094-1.077,1.221,1.221,0,0,0-.32-.907.979.979,0,0,0-.714-.318.5.5,0,0,1,0-1,1.97,1.97,0,0,1,1.44.631,2.226,2.226,0,0,1,.592,1.65,2.119,2.119,0,0,1-2.092,2.021h-.378l2.114,2.267a.5.5,0,0,1-.366.841Z" transform="translate(-1087.577 -276.665)" fill="#be1600"/>
    </g>
  </g>
</svg>
