<svg id="NSE_Logo" data-name="NSE Logo" xmlns="http://www.w3.org/2000/svg" width="101.648" height="34.489" viewBox="0 0 101.648 34.489">
  <g id="Group_11" data-name="Group 11">
    <g id="Group_10" data-name="Group 10" transform="translate(41.503 5.17)">
      <path id="Path_5" data-name="Path 5" d="M112.709,28.45,103.454,13.7H99.1V36.735h4.861l-.254-14.666,9.172,14.666H117.1V13.7h-4.861Z" transform="translate(-99.1 -13.144)" fill="#3a2d7d"/>
      <path id="Path_6" data-name="Path 6" d="M159.9,22.035l-2.324-.507c-2.029-.422-3.128-.72-3.593-1.479a1.351,1.351,0,0,1-.211-.8,1.485,1.485,0,0,1,.211-.845c.761-1.44,3.128-1.52,3.593-1.52a6.081,6.081,0,0,1,5.452,3.128l.211.338,4.057-3-.211-.3a10.906,10.906,0,0,0-9.3-4.654c-5.41,0-7.608,2.705-8.285,3.846a7.081,7.081,0,0,0-.887,3.466,5.957,5.957,0,0,0,3.381,5.494,11.2,11.2,0,0,0,3.254,1.015l2.874.634.507.126c1.015.211,2.578.55,3.17,1.311a1.971,1.971,0,0,1,.338,1.1c0,1.9-2.113,2.367-2.367,2.409a6.44,6.44,0,0,1-1.563.126c-4.015,0-5.706-1.817-6.594-3.17l-.211-.3-4.1,2.832.169.3a7.532,7.532,0,0,0,1.141,1.52c1.479,1.563,4.269,3.424,8.961,3.424a11.161,11.161,0,0,0,7.521-2.409,6.429,6.429,0,0,0,2.324-5.2,5.531,5.531,0,0,0-1.395-4.015c-1.562-1.73-3.971-2.406-6.127-2.871Z" transform="translate(-126.928 -12.393)" fill="#3a2d7d"/>
      <path id="Path_7" data-name="Path 7" d="M206.418,32.254V27.013h10.228V22.661H206.418V18.181h11.2V13.7H201.6V36.735h16.822V32.254Z" transform="translate(-158.277 -13.144)" fill="#3a2d7d"/>
    </g>
    <path id="Rectangle_8" data-name="Rectangle 8" d="M0,0H10.778V10.778H0Z" transform="translate(17.317 9.615) rotate(45)" fill="#fff"/>
    <path id="Rectangle_9" data-name="Rectangle 9" d="M0,0H10.778V10.778H0Z" transform="translate(9.685 17.254) rotate(-45)" fill="none"/>
    <path id="Path_8" data-name="Path 8" d="M36.514,5.072,24.257,0,12,5.072l12.257,4.61Z" transform="translate(-6.928)" fill="#e66f25"/>
    <path id="Path_9" data-name="Path 9" d="M48.608,24.257,53.257,12,41,16.607Z" transform="translate(-23.744 -6.928)" fill="#3a2e7d"/>
    <path id="Path_10" data-name="Path 10" d="M41,48.608l12.257,4.607L48.608,41Z" transform="translate(-23.744 -23.801)" fill="#efb41d"/>
    <path id="Path_11" data-name="Path 11" d="M24.257,16.607,12,12l4.65,12.257Z" transform="translate(-6.928 -6.928)" fill="#efb41d"/>
    <path id="Path_12" data-name="Path 12" d="M5.072,12C5.03,11.958,0,24.15,0,24.15L5.072,36.341l4.65-12.15Z" transform="translate(0 -6.928)" fill="#e22028"/>
    <path id="Path_13" data-name="Path 13" d="M16.65,41,12,53.215l12.257-4.607Z" transform="translate(-6.928 -23.801)" fill="#efb41d"/>
    <path id="Path_14" data-name="Path 14" d="M12,63.607l12.257,5.074L36.514,63.61,24.257,59Z" transform="translate(-6.928 -34.193)" fill="#e22028"/>
    <path id="Path_15" data-name="Path 15" d="M63.65,12,59,24.192l4.65,12.15,5.072-12.15Z" transform="translate(-34.166 -6.928)" fill="#e66f25"/>
  </g>
</svg>
