<?xml version="1.0" encoding="UTF-8"?>
<svg xmlns="http://www.w3.org/2000/svg" xmlns:xlink="http://www.w3.org/1999/xlink" width="46" height="46" viewBox="0 0 46 46">
  <defs>
    <linearGradient id="linear-gradient" x1="-0.132" y1="0.42" x2="2.006" y2="0.69" gradientUnits="objectBoundingBox">
      <stop offset="0" stop-color="#db001a"></stop>
      <stop offset="0.345" stop-color="#c30c21"></stop>
      <stop offset="1" stop-color="#8c2934"></stop>
    </linearGradient>
  </defs>
  <g id="Pen" transform="translate(2010 -9160)">
    <g id="Group_106" data-name="Group 106" transform="translate(-2009 9160.002)">
      <rect id="Rectangle_163" data-name="Rectangle 163" width="44.676" height="45.998" fill="url(#linear-gradient)"></rect>
      <g id="Group_105" data-name="Group 105" transform="translate(8.357 16.319)">
        <path id="Path_8" data-name="Path 8" d="M315.2,178.595q0-2.434,0-4.867c0-.061,0-.122,0-.183-.007-.1.031-.149.134-.141.017,0,.035,0,.052,0,1.378,0,2.757-.012,4.134.017a5.84,5.84,0,0,1,2.411.515,3.671,3.671,0,0,1,.564.328,2.663,2.663,0,0,1,1.167,2.279q.005,3.52,0,7.039c0,.19,0,.194-.18.195-.462,0-.925,0-1.387,0-.127,0-.177-.038-.161-.164a.8.8,0,0,0,0-.1q0-3.4.005-6.8a2.07,2.07,0,0,0-1.174-2.025,3.493,3.493,0,0,0-1.229-.332c-.8-.081-1.6-.044-2.405-.052-.206,0-.208,0-.208.22q0,1.622,0,3.245,0,2.865,0,5.731c0,.317.037.281-.274.282q-.615,0-1.23,0c-.215,0-.217,0-.218-.21,0-.331,0-.663,0-.994Q315.2,180.584,315.2,178.595Z" transform="translate(-295.701 -173.402)" fill="#fff"></path>
        <path id="Path_9" data-name="Path 9" d="M103.042,176.634a3.1,3.1,0,0,0-.06-.676,2.754,2.754,0,0,0-1.659-2.017,6.012,6.012,0,0,0-2.436-.523c-1.343-.016-2.686-.01-4.03-.011-.327,0-.292-.039-.293.292q0,3.546,0,7.091t0,7.118c0,.07,0,.14,0,.209s.036.108.112.108q.746,0,1.492,0c.09,0,.126-.04.123-.126,0-.061,0-.122,0-.183q0-1.91,0-3.82c0-.061,0-.122,0-.183-.007-.1.036-.142.137-.134.087.006.174,0,.262,0,.88-.014,1.761.034,2.641-.051a5.611,5.611,0,0,0,2.037-.522,2.792,2.792,0,0,0,1.675-2.7C103.025,179.215,103.028,177.924,103.042,176.634Zm-1.728,3.928a2.04,2.04,0,0,1-1.4,2.006,4.138,4.138,0,0,1-1.379.267c-.663.033-1.326.013-1.989.017-.276,0-.257.021-.257-.252q0-1.858,0-3.716v-.34q0-1.963,0-3.926c0-.07,0-.14,0-.209s.034-.111.109-.108c.026,0,.052,0,.079,0,.8.011,1.6-.029,2.406.051a3.476,3.476,0,0,1,1.253.34,2.027,2.027,0,0,1,1.176,1.919Q101.324,178.586,101.315,180.562Z" transform="translate(-94.563 -173.404)" fill="#fff"></path>
        <path id="Path_10" data-name="Path 10" d="M212.391,174.7a3.7,3.7,0,0,0-.76-.455,5.809,5.809,0,0,0-2.158-.467c-1.429-.066-2.86-.017-4.29-.028-.2,0-.2,0-.208.2,0,.052,0,.1,0,.157v3.4c0,1.125,0,2.25,0,3.375a2.784,2.784,0,0,0,1.549,2.569,3.494,3.494,0,0,0,.622.271,8.275,8.275,0,0,0,3.177.335,3.487,3.487,0,0,0,.942-.2c.113-.04.179-.1.162-.227a1.068,1.068,0,0,1,0-.131c0-.29.024-.272-.263-.274-.558,0-1.116.012-1.674-.027a4.283,4.283,0,0,1-1.423-.3,2.123,2.123,0,0,1-1.365-2.067c0-.2,0-.2.2-.2l.157,0a13.968,13.968,0,0,0,2.842-.155,5.472,5.472,0,0,0,2.22-.868,2.89,2.89,0,0,0,1.256-1.8,4.5,4.5,0,0,0,.078-.936A2.639,2.639,0,0,0,212.391,174.7Zm-.687,2.791a2.168,2.168,0,0,1-1.186,1.683,4.18,4.18,0,0,1-1.489.459,11.486,11.486,0,0,1-2.14.065c-.182-.009-.186-.012-.186-.194q0-1.164,0-2.328,0-1.138,0-2.276c0-.232,0-.236.219-.234.793.008,1.587-.029,2.379.05a3.423,3.423,0,0,1,1.322.376,1.964,1.964,0,0,1,1.1,1.746A3.971,3.971,0,0,1,211.7,177.491Z" transform="translate(-195.217 -173.713)" fill="#fff"></path>
      </g>
    </g>
    <g id="Rectangle_162" data-name="Rectangle 162" transform="translate(-2010 9160)" fill="none" stroke="red" stroke-width="1" opacity="0">
      <rect width="46" height="46" stroke="none"></rect>
      <rect x="0.5" y="0.5" width="45" height="45" fill="none"></rect>
    </g>
  </g>
</svg>
