<svg xmlns="http://www.w3.org/2000/svg" width="20.607" height="17.27" viewBox="0 0 20.607 17.27">
  <path id="layer" d="M17.352,1.376A4.16,4.16,0,0,0,14.267,0,4.3,4.3,0,0,0,10.04,4.36a4.465,4.465,0,0,0,.109.993A11.881,11.881,0,0,1,1.434.8,4.458,4.458,0,0,0,.862,2.99,4.394,4.394,0,0,0,2.743,6.618,4.133,4.133,0,0,1,.827,6.075v.053A4.329,4.329,0,0,0,4.22,10.4a4.009,4.009,0,0,1-1.114.154,4.1,4.1,0,0,1-.8-.077,4.248,4.248,0,0,0,3.949,3.026,8.32,8.32,0,0,1-5.251,1.867A8.425,8.425,0,0,1,0,15.313,11.721,11.721,0,0,0,6.481,17.27c7.777,0,12.029-6.642,12.029-12.4,0-.19,0-.379-.01-.565a8.7,8.7,0,0,0,2.108-2.256,8.245,8.245,0,0,1-2.428.686A4.348,4.348,0,0,0,20.039.319,8.285,8.285,0,0,1,17.352,1.376Z" fill="#fff"/>
</svg>
