<svg xmlns="http://www.w3.org/2000/svg" width="28.612" height="27.379" viewBox="0 0 28.612 27.379">
  <g id="Group_69002" data-name="Group 69002" transform="translate(-1389.932 -315.367)">
    <path id="Path_84967" data-name="Path 84967" d="M-10112.984-5210.159h8.65a.749.749,0,0,1,.534.224l6.285,6.376a.747.747,0,0,1,.216.526v17.041a.75.75,0,0,1-.75.75h-14.935a4.2,4.2,0,0,1-2.889-1.152,4.541,4.541,0,0,1-1.178-3.365c.019-3.055.007-11.357,0-14.9,0-.731,0-1.279,0-1.563a4.213,4.213,0,0,1,.824-2.987,2.91,2.91,0,0,1,2.214-.948h1.027Zm-.722,1.5h-.286a1.42,1.42,0,0,0-1.1.434,2.788,2.788,0,0,0-.46,1.88.578.578,0,0,1,0,.082c0,.272,0,.835,0,1.6,0,3.547.017,11.853,0,14.915a3.12,3.12,0,0,0,.742,2.3,2.711,2.711,0,0,0,1.824.709h.042a.257.257,0,0,1,.038,0h14.1v-15.983l-5.849-5.934Z" transform="translate(11506.999 5525.525)"/>
    <path id="Path_84968" data-name="Path 84968" d="M-10090.052-5153.349h-6.7a.75.75,0,0,1-.75-.75.75.75,0,0,1,.75-.75h6.7a.75.75,0,0,1,.75.75A.75.75,0,0,1-10090.052-5153.349Z" transform="translate(11491.397 5480.745)"/>
    <path id="Path_84970" data-name="Path 84970" d="M-10090.052-5153.349h-6.7a.75.75,0,0,1-.75-.75.75.75,0,0,1,.75-.75h6.7a.75.75,0,0,1,.75.75A.75.75,0,0,1-10090.052-5153.349Z" transform="translate(11491.252 5487.477)"/>
    <path id="Path_84969" data-name="Path 84969" d="M-10088.545-5137.936h-8.931a.75.75,0,0,1-.75-.75.75.75,0,0,1,.75-.75h8.931a.75.75,0,0,1,.75.75A.75.75,0,0,1-10088.545-5137.936Z" transform="translate(11491.972 5468.567)"/>
    <g id="Group_69000" data-name="Group 69000" transform="translate(1402.444 326.646)">
      <path id="Path_2079" data-name="Path 2079" d="M1088.918,272.535a7.675,7.675,0,1,1-7.675-7.675A7.675,7.675,0,0,1,1088.918,272.535Z" transform="translate(-1073.569 -264.86)" fill="#f7f1ea"/>
      <path id="Path_2079_-_Outline" data-name="Path 2079 - Outline" d="M1081.244,280.959a8.425,8.425,0,1,1,8.425-8.425A8.434,8.434,0,0,1,1081.244,280.959Zm0-15.349a6.925,6.925,0,1,0,6.925,6.925A6.932,6.932,0,0,0,1081.244,265.61Z" transform="translate(-1073.569 -264.86)" fill="#be1600"/>
      <g id="Group_64753" data-name="Group 64753" transform="translate(5.11 4.284)">
        <path id="Line_36" data-name="Line 36" d="M5.043.6H0A.6.6,0,0,1-.6,0,.6.6,0,0,1,0-.6H5.043a.6.6,0,0,1,.6.6A.6.6,0,0,1,5.043.6Z" transform="translate(0 0)" fill="#be1600"/>
        <path id="Line_37" data-name="Line 37" d="M5.13.662H5.123L-.007.6A.6.6,0,0,1-.6-.007.6.6,0,0,1,.007-.6l5.13.062A.6.6,0,0,1,5.13.662Z" transform="translate(0 2.095)" fill="#be1600"/>
        <path id="Path_2083" data-name="Path 2083" d="M1091.325,285.178a.6.6,0,0,1-.439-.191l-.223-.24-3.338-3.578a.611.611,0,0,1,.446-1.028h1.863A1.4,1.4,0,0,0,1091,278.8a1.527,1.527,0,0,0-.4-1.133,1.225,1.225,0,0,0-.893-.4.6.6,0,0,1,0-1.2,2.414,2.414,0,0,1,1.765.773,2.732,2.732,0,0,1,.727,2.025,2.6,2.6,0,0,1-2.566,2.479h-.507l2.637,2.828a.6.6,0,0,1-.439,1.009Z" transform="translate(-1087.533 -276.665)" fill="#be1600"/>
      </g>
    </g>
  </g>
</svg>
