<svg xmlns="http://www.w3.org/2000/svg" width="25.112" height="18.84" viewBox="0 0 25.112 18.84">
  <path id="Path_34136" data-name="Path 34136" d="M30.692,12.437a6.036,6.036,0,0,0-1-2.661,3.466,3.466,0,0,0-2.516-1.132c-3.514-.273-8.785-.273-8.785-.273H18.38s-5.271,0-8.785.273A3.465,3.465,0,0,0,7.08,9.776a6.053,6.053,0,0,0-1,2.661,43.236,43.236,0,0,0-.251,4.335V18.8a43.2,43.2,0,0,0,.251,4.335,6.025,6.025,0,0,0,1,2.658,4.114,4.114,0,0,0,2.768,1.146c2.009.2,8.539.268,8.539.268s5.277-.01,8.792-.279A3.483,3.483,0,0,0,29.7,25.8a6.036,6.036,0,0,0,1-2.658,43.237,43.237,0,0,0,.251-4.335V16.772A43.027,43.027,0,0,0,30.692,12.437ZM15.251,22.5v-9.42L23.1,17.791Z" transform="translate(-5.832 -8.371)" fill="#fff"/>
</svg>
